<?xml version="1.0" standalone="no"?>
<svg viewBox="0 0 200 200" xmlns="http://www.w3.org/2000/svg" height="1000px" width="1000px">
  <defs>
  <linearGradient spreadMethod="pad" id="gradient" x1="0%" y1="8%" x2="99%" y2="0%">
    <stop offset="0%" style="stop-color:rgb(255, 255, 255);stop-opacity:1;" />
    <stop offset="14.000000000000002%" style="stop-color:rgb(249, 231, 215);stop-opacity:1;" />
    <stop offset="100%" style="stop-color:rgb(255, 119, 0);stop-opacity:1;" />
  </linearGradient>
</defs>
  <path fill="url('#gradient')" d="M25.5,-36.5C36.9,-32.3,52.8,-31.8,58.1,-25.1C63.3,-18.4,58,-5.4,55,7.1C51.9,19.6,51.2,31.6,45.3,40.3C39.4,49,28.5,54.3,15.5,62.6C2.5,70.9,-12.4,82.1,-21,77.1C-29.6,72.1,-31.9,50.8,-36.9,36.6C-41.8,22.5,-49.5,15.3,-55.7,5C-61.9,-5.4,-66.7,-19,-64.2,-31.4C-61.7,-43.7,-52,-54.7,-40.1,-58.7C-28.2,-62.7,-14.1,-59.7,-3.5,-54.2C7,-48.7,14,-40.7,25.5,-36.5Z" transform="translate(100 100)" />
</svg>
