<?xml version="1.0" standalone="no"?>
<svg viewBox="0 0 200 200" xmlns="http://www.w3.org/2000/svg" width="800px" height="800px">
  <defs>
    <linearGradient spreadMethod="pad" id="gradient" x1="0%" y1="0%" x2="94%" y2="106%">
      <stop offset="0%" style="stop-color:rgb(255, 119, 0);stop-opacity:1;" />
      <stop offset="84%" style="stop-color:rgb(249, 231, 215);stop-opacity:1;" />
      <stop offset="98%" style="stop-color:rgb(255, 255, 255);stop-opacity:1;" />
      <stop offset="100" style="stop-color:rgb(255, 255, 255);stop-opacity:1;" />
    </linearGradient>
  </defs>

  <path fill="url('#gradient')" d="M17.7,-31C21.1,-25.3,20.8,-17.4,17.4,-11.8C14,-6.2,7.4,-3.1,11.9,5.4C16.4,13.8,31.9,27.5,33.5,33.4C35.1,39.3,22.8,37.5,11.8,41.4C0.7,45.3,-9.1,54.9,-17.4,54.6C-25.7,54.3,-32.5,44.2,-43.9,35.5C-55.3,26.8,-71.3,19.7,-73.7,9.9C-76.2,0.2,-65,-12.2,-59.5,-28.3C-54,-44.4,-54,-64.2,-45,-67.4C-36,-70.6,-18,-57.1,-5.4,-48.6C7.1,-40.2,14.3,-36.7,17.7,-31Z" transform="translate(100 100)" />

</svg>
