<svg id="Layer_1" enable-background="new 0 0 512 512" height="512" viewBox="0 0 512 512" width="512" xmlns="http://www.w3.org/2000/svg"><g><path d="m336.333 289.2h-1.066v-209.933c0-8.284-6.716-15-15-15h-97.467v-49.267c0-8.284-6.716-15-15-15h-64.267c-8.284 0-15 6.716-15 15v49.267h-97.467c-8.284 0-15 6.716-15 15v209.933h-1.066c-8.284 0-15 6.716-15 15v64.267c0 8.284 6.716 15 15 15h42.621l-40.6 108.266c-1.728 4.606-1.086 9.768 1.716 13.811 2.803 4.043 7.409 6.456 12.329 6.456h72.3c6.253 0 11.85-3.878 14.045-9.733l44.55-118.8h27.41l44.55 118.8c2.195 5.854 7.792 9.733 14.045 9.733h72.3c4.92 0 9.526-2.413 12.329-6.456 2.802-4.043 3.443-9.205 1.716-13.811l-40.6-108.266h42.621c8.284 0 15-6.716 15-15v-64.267c.001-8.284-6.715-15-14.999-15zm-177.8-259.2h34.267v34.267h-34.267zm-112.467 64.267h259.2v141.587l-70.794-70.793c-2.813-2.813-6.628-4.394-10.606-4.394s-7.794 1.581-10.606 4.394l-37.593 37.593-37.594-37.593c-5.857-5.858-15.355-5.858-21.213 0l-70.794 70.793zm259.201 184.013v10.92h-43.054l-65.333-65.333 26.986-26.987zm-259.201 0 81.4-81.4 92.32 92.32h-173.72zm46.906 203.72h-40.26l36.949-98.533h40.26zm205.649 0h-40.26l-36.949-98.533h40.26zm22.712-128.533h-291.333v-34.267h291.333z"/><path d="m512 191.733c0-36.902-45.248-111.872-50.407-120.299-2.727-4.453-7.572-7.167-12.793-7.167s-10.066 2.715-12.793 7.167c-13.624 22.268-50.407 87.11-50.407 120.299 0 28.682 19.212 52.946 45.438 60.641-8.124 41.694-29.37 156.122-29.37 212.492 0 25.989 21.144 47.133 47.133 47.133s47.134-21.144 47.134-47.133c0-56.37-21.247-170.798-29.371-212.492 26.224-7.695 45.436-31.959 45.436-60.641zm-96.4 0c0-16.751 17.175-53.371 33.169-82.459 34.468 62.582 33.231 81.551 33.231 82.459 0 18.306-14.894 33.2-33.2 33.2s-33.2-14.893-33.2-33.2zm33.2 290.267c-9.447 0-17.133-7.686-17.133-17.133 0-34.433 8.791-93.971 17.134-142.72 8.342 48.742 17.133 108.28 17.133 142.72 0 9.447-7.687 17.133-17.134 17.133z"/></g></svg>