<svg width="300" height="100" xmlns="http://www.w3.org/2000/svg">

 <g>
  <title>background</title>
  <rect fill="none" id="canvas_background" height="102" width="302" y="-1" x="-1"/>
 </g>
 <g>
  <title>Layer 1</title>
  <path id="svg_1" fill="#17CF97" d="m88,32.5c0,9.665 -7.835,17.5 -17.5,17.5l-17.5,0l0,-17.5c0,-9.665 7.835,-17.5 17.5,-17.5c9.665,0 17.5,7.835 17.5,17.5z"/>
  <path id="svg_2" fill="#17CF97" d="m88,67.5c0,-9.665 7.835,-17.5 17.5,-17.5l17.5,0l0,17.5c0,9.665 -7.835,17.5 -17.5,17.5c-9.665,0 -17.5,-7.835 -17.5,-17.5z"/>
  <path id="svg_3" fill="#17CF97" d="m53,67.5c0,9.665 7.835,17.5 17.5,17.5l17.5,0l0,-17.5c0,-9.665 -7.835,-17.5 -17.5,-17.5c-9.665,0 -17.5,7.835 -17.5,17.5z"/>
  <path id="svg_4" fill="#17CF97" d="m123,32.5c0,-9.665 -7.835,-17.5 -17.5,-17.5l-17.5,0l0,17.5c0,9.665 7.835,17.5 17.5,17.5c9.665,0 17.5,-7.835 17.5,-17.5z"/>
  <text font-style="normal" font-weight="bold" stroke="null" transform="matrix(2.419699644948213,0,0,2.086483061799743,-204.96523941712687,-34.22968084092785) " xml:space="preserve" text-anchor="start" font-family="'Trebuchet MS', Gadget, sans-serif" font-size="24" id="svg_5" y="47.1582" x="141.91576" stroke-opacity="null" stroke-width="0" fill="#f9f7f7">KEEP</text>
 </g>
</svg>