<svg viewBox="0 0 200 200" width="100px" height="100px" xmlns="http://www.w3.org/2000/svg">
    <path fill="#FF7700" d="M40.7,-70.5C51.3,-64.3,57.7,-50.6,66.6,-37.6C75.5,-24.6,87,-12.3,87.5,0.3C87.9,12.8,77.3,25.6,68.4,38.7C59.5,51.8,52.5,65.2,41.4,69.3C30.2,73.3,15.1,68,0.1,67.9C-14.9,67.7,-29.8,72.6,-44.2,70.4C-58.5,68.2,-72.2,58.9,-69.3,46C-66.3,33.1,-46.7,16.5,-37.1,5.5C-27.5,-5.5,-27.9,-10.9,-30.7,-23.5C-33.5,-36.2,-38.6,-56,-33.9,-65.6C-29.2,-75.3,-14.6,-74.8,0.2,-75.2C15,-75.5,30,-76.7,40.7,-70.5Z" transform="translate(100 100)" />
</svg>
